<?xml version="1.0" encoding="iso-8859-1"?>
<!-- Generator: Adobe Illustrator 16.0.0, SVG Export Plug-In . SVG Version: 6.00 Build 0)  -->
<!DOCTYPE svg PUBLIC "-//W3C//DTD SVG 1.1//EN" "http://www.w3.org/Graphics/SVG/1.1/DTD/svg11.dtd">
<svg version="1.1" id="Capa_1" xmlns="http://www.w3.org/2000/svg" xmlns:xlink="http://www.w3.org/1999/xlink" x="0px" y="0px"
	 width="124px" height="124px" viewBox="0 0 124 124" style="enable-background:new 0 0 124 124;" xml:space="preserve">
<g>
	<path d="M105.801,59.75c-5.201,0-9.9,2.2-13.201,5.7v-28.3c0-3.3-2.699-6-6-6H59.3c3.2-3.3,5.2-7.7,5.2-12.7
		c0-10-8.1-18.2-18.2-18.2c-10,0-18.2,8.1-18.2,18.2c0,4.9,2,9.4,5.2,12.7H6c-3.3,0-6,2.7-6,6v21.3c0,2.1,2.2,3.5,4.1,2.7
		c2.5-1,5.2-1.5,8.1-1.3c8.7,0.6,15.8,7.5,16.7,16.1c1.2,10.899-7.4,20.2-18.1,20.2c-2.4,0-4.6-0.5-6.7-1.301
		c-2-0.8-4.1,0.601-4.1,2.7v20.2c0,3.3,2.7,6,6,6h20c2,0,3.4-1.9,2.8-3.8c-0.5-1.7-0.7-3.601-0.7-5.5c0.3-9.8,8.5-17.8,18.3-17.7
		c10,0.1,18,8.2,18,18.2c0,1.8-0.301,3.5-0.7,5.1c-0.5,1.9,0.899,3.7,2.899,3.7h20c3.301,0,6-2.7,6-6v-27.3
		c3.301,3.5,8,5.7,13.201,5.7c10,0,18.199-8.101,18.199-18.2C124,67.85,115.9,59.75,105.801,59.75z"/>
</g>
<g>
</g>
<g>
</g>
<g>
</g>
<g>
</g>
<g>
</g>
<g>
</g>
<g>
</g>
<g>
</g>
<g>
</g>
<g>
</g>
<g>
</g>
<g>
</g>
<g>
</g>
<g>
</g>
<g>
</g>
</svg>
